<svg xmlns="http://www.w3.org/2000/svg" xmlns:xlink="http://www.w3.org/1999/xlink" id="Layer_1" x="0px" y="0px" viewBox="0 0 1023.8 294.3" style="enable-background:new 0 0 1023.8 294.3;" xml:space="preserve">
<style type="text/css">
	.st0{fill:#FFFFFF;}
	.st1{fill-rule:evenodd;clip-rule:evenodd;fill:#FA6030;}
</style>
<g>
	<g>
		<path class="st0" d="M371.6,31.7h15.5l35.8,47.3V31.7h16.6v76.9h-14.3l-37-48.9v48.9h-16.6V31.7z"></path>
		<path class="st0" d="M492.8,31.2h15.5l32.8,77.4h-17.6l-7-17.2h-32.3l-7,17.2H460L492.8,31.2z M510.5,76.4l-10.2-24.9l-10.2,24.9    H510.5z"></path>
		<path class="st0" d="M569.6,47.3h-23.3V31.7h63.3v15.6h-23.3v61.3h-16.8V47.3z"></path>
		<path class="st0" d="M632,31.7h16.8v76.9H632V31.7z"></path>
		<path class="st0" d="M673.3,70.4v-0.2c0-21.9,17.1-39.8,40.7-39.8c23.6,0,40.5,17.7,40.5,39.5v0.2c0,21.9-17.1,39.8-40.7,39.8    C690.2,109.9,673.3,92.3,673.3,70.4z M737,70.4v-0.2C737,57,727.3,46,713.8,46c-13.5,0-22.9,10.8-22.9,23.9v0.2    c0,13.2,9.6,24.2,23.1,24.2S737,83.6,737,70.4z"></path>
		<path class="st0" d="M778.2,31.7h15.5l35.8,47.3V31.7h16.6v76.9h-14.3l-37-48.9v48.9h-16.6V31.7z"></path>
		<path class="st0" d="M899.4,31.2h15.5l32.8,77.4h-17.6l-7-17.2h-32.3l-7,17.2h-17.1L899.4,31.2z M917.1,76.4L907,51.5l-10.2,24.9    H917.1z"></path>
		<path class="st0" d="M968.2,31.7H985v61.5h38.1v15.4h-54.9V31.7z"></path>
	</g>
	<g>
		<path class="st1" d="M266.9,36.6c-4.8-4.1-10-6.9-13.3-6.9c-0.8,0-1.5,0.2-2,0.6c-0.9,0.7-1.3,1.7-1.3,3c0,3.3,2.8,8.2,7.6,12.5    c4.5,4.3,9.6,6.6,13,6.6c1.5,0,2.7-0.5,3.5-1.5C276.2,48.4,272.7,42,266.9,36.6z M294.6,67.7c-4.5-6.1-9.1-9.1-10.4-6.1    c-0.4,0.8-0.6,1.8-0.6,3c0,4.2,2.5,10.6,6.7,15.8c3.2,4.3,6.4,6.6,8.6,6.6c1.2,0,2.1-0.7,2.4-2.1c0-0.2,0-0.5,0-0.7    C301.3,80.4,298.3,73.4,294.6,67.7z M315.4,117.5c-0.1-0.5-0.1-0.9-0.3-1.5c-1.3-6.2-2.9-12.4-5-18.4l0,0    c-0.9-2.4-1.7-3.7-2.2-3.7c-0.3,0-0.5,0.6-0.5,1.8c-0.1,0.5-0.1,1.2-0.1,1.8c0,4.6,1.8,12.1,4.4,17.5c2.2,5.6,3.9,6.7,3.9,3.5    C315.5,118.3,315.5,117.9,315.4,117.5z M172.8,1.4c-2.7-1-6.1-1.4-9.5-1.4c-4.3,0-8.7,0.7-12,2.2c-3.3,1.6-5,3.8-5,5.9    c0,1.9,1.5,3.9,4.5,5.3c3,1.6,6.8,2.4,10.8,2.4c4.6,0,9.4-1.1,12.8-3.3C180.3,9.1,179.3,4.1,172.8,1.4z M250.5,53.6    c-7.1-6.3-17-7.6-22.2-2.7c-2.3,2.2-3.4,5.2-3.4,8.5c0,4.8,2.4,10,6.9,14.1c4.1,3.8,9.1,5.8,13.6,5.8c3.7,0,7.2-1.4,9.5-4.1    c1.7-2,2.5-4.6,2.5-7.3C257.4,63.2,254.9,57.8,250.5,53.6z M284.9,89.8c-3.3-4-7.4-6.1-11.1-6.1c-2.8,0-5.3,1.2-7.1,3.7    c-1.9,2.4-2.8,5.7-2.8,9.3c0,5.2,2.1,11,6,15.4c3.2,3.7,7.1,5.5,10.6,5.5c3.2,0,6.2-1.5,8.1-4.6C292,106.8,290.3,96.6,284.9,89.8z     M308.8,125.3c-3.4-6.2-8.8-6.8-11.9-0.7c-1.6,2.8-2.4,6.6-2.4,10.4c0,4.8,1.2,9.8,3.7,13.4c1.8,2.8,3.9,4.2,5.9,4.2    c2.3,0,4.6-1.8,6-5.2c0.9-2.6,1.4-5.7,1.4-9C311.5,133.7,310.6,128.9,308.8,125.3z M316.5,151.6c-0.8,0-1.8,1.7-2.8,5    c-1.6,4.3-2.4,10-2.4,14.6c0,2.2,0.2,4.2,0.6,5.7c0.2,1.5,0.6,2.2,1,2.2c0.8,0,1.8-2.3,2.7-6.2c0.1-0.4,0.2-1,0.3-1.5l0,0    c0.7-4,1.2-8.1,1.6-12.1c0.1-1.7,0.2-3.4,0.2-4.6C317.6,152.7,317.1,151.6,316.5,151.6z M118.9,4.8c-2.2-1.3-5-1.9-8-1.9    c-5.2,0-10.9,1.9-15.3,5.2c-3.9,3.2-5.9,7.2-5.9,10.8c0,2.8,1.2,5.3,3.7,7.1c2.5,1.9,5.9,2.8,9.5,2.8c5.2,0,11-2,15.3-5.8    C125.3,17,125.4,8.8,118.9,4.8z M219.9,86.3c-3.9-3.6-8.9-5.4-13.8-5.4c-4.9,0-9.6,1.8-13.1,5.4c-3.3,3.5-5,8-5,12.5    c0,5.3,2.2,10.7,6.6,14.7c3.9,3.7,8.9,5.5,13.8,5.5c5.1,0,10.1-2,13.7-6C228.7,105.5,227.6,93.5,219.9,86.3z M289.9,161.8    c-4.7-6.3-13.3-5.6-18.9,2c-3.1,4-4.6,9.1-4.6,13.8c0,4.4,1.3,8.5,3.9,11.4c2,2.3,4.6,3.4,7.3,3.4c3.9,0,8.1-2.4,11.2-6.7    c2.7-4,4.1-9,4.1-13.7C292.8,168.2,291.8,164.6,289.9,161.8z M306.1,189.7c-0.6-1.5-1.7-2.3-3-2.3c-2.4,0-5.6,2.4-8.5,7    c-3.3,4.8-5.1,10.8-5.1,15.3c0,2.1,0.4,3.9,1.2,5.1c0.6,0.9,1.4,1.4,2.3,1.4c2.4,0,5.6-2.9,8.5-7.6    C305.1,201.9,307.3,193.8,306.1,189.7z M53.2,17.6c-0.5-0.3-1.2-0.5-2-0.5c-3.3,0-8.5,3.1-13.1,7.9c-4.3,4.8-6.9,10-6.9,13.3    c0,1,0.2,1.8,0.7,2.4c0.8,0.9,1.9,1.4,3.3,1.4c3.5,0,8.6-2.8,13-7.7C54.5,27.7,56.6,20.1,53.2,17.6z M125.5,85.6    c-0.6,0-1.2,0-1.9,0.1c1.1,0,2.2,0,3.2,0C126.4,85.6,126,85.6,125.5,85.6z M180.3,128.9c-8.2-7.5-21.1-7-28.7,1.1    c-3.6,3.9-5.4,8.8-5.4,13.8c0,5.5,2.2,10.9,6.5,14.9c3.9,3.6,8.8,5.4,13.8,5.4c5.5,0,10.9-2.2,14.9-6.5c3.6-3.9,5.4-8.8,5.4-13.8    C186.8,138.3,184.6,132.8,180.3,128.9z M222.8,168.9c-3.5-3.4-8.1-5.1-12.8-5.1c-5.3,0-10.7,2.2-14.7,6.5    c-3.6,3.9-5.4,8.9-5.4,13.7c0,5.2,2.1,10.3,6.1,13.9c3.4,3.1,7.8,4.6,12.2,4.6c5.3,0,10.8-2.2,14.8-6.5    C230.2,188.1,230.2,176,222.8,168.9z M258.2,203.7c-5.8-5.9-16.5-4.5-23.4,3.2c-3.8,4-5.7,9-5.7,13.5c0,4,1.4,7.6,4.4,10.1    c2.2,1.8,5,2.7,8,2.7c4.9,0,10.4-2.4,14.5-6.8c3.7-4.1,5.6-9.1,5.6-13.7C261.6,209.3,260.5,206.1,258.2,203.7z M280.7,227.9    c-0.9-1.1-2.3-1.6-3.9-1.6c-3.7,0-8.8,2.7-13,7.4c-4.2,4.4-6.4,9.3-6.4,13c0,1.9,0.6,3.5,1.9,4.4c0.7,0.5,1.5,0.7,2.5,0.7    c3.6,0,8.8-3,13.3-7.6C280.4,238.1,283.1,230.9,280.7,227.9z M45.9,80.1c-1.9-2.2-4.2-3.2-6.7-3.2c-3.8,0-7.9,2.4-11,6.8    c-2.7,4.1-4.1,9.2-4.1,13.9c0,3.6,0.8,7,2.6,9.6c2,2.7,4.7,4.1,7.7,4.1c3.6,0,7.5-2.1,10.5-6.3C50.7,97.3,51.1,86,45.9,80.1z     M97.2,134.3c-7-7.1-17.6-6.2-23.8,1.5c-2.7,3.6-4.1,8.1-4.1,12.6c0,5.1,1.7,10.2,5.1,14c3.3,3.5,7.5,5.3,11.8,5.3    c4.4,0,8.8-1.9,12-5.8c3.2-3.7,4.7-8.4,4.7-13.1C102.9,143.5,101,138.2,97.2,134.3z M247,262.1c-1-0.6-2.4-0.9-4-0.9    c-4.6,0-11,2.3-16,6.3c-4.1,3.1-6.3,6.3-6.3,8.7c0,1.5,0.8,2.6,2.5,3.2c0.5,0.1,1,0.1,1.5,0.1c4.4,0,11.3-2.6,16.9-6.2    C247.9,268.8,250.5,263.9,247,262.1z M101.6,214.4c-7.5-7.1-17.9-7.8-22.8-1.7c-1.6,2-2.4,4.6-2.4,7.3c0,4.9,2.4,10.4,6.8,14.6    c4.2,3.8,9.2,5.8,13.7,5.8c3.2,0,6.1-1,8.2-3.1c2.3-2.2,3.4-5.3,3.4-8.6C108.5,223.9,106.1,218.5,101.6,214.4z M142.9,249.2    c-7.7-6-19.1-6.5-24.8-1.2c-2.1,1.8-3.1,4.2-3.1,6.6c0,3.9,2.5,8.2,7,11.4c4.1,2.8,9.3,4.2,14,4.2c3.5,0,6.8-0.8,9.3-2.5    c2.7-2,4-4.7,4-7.7C149.3,256.4,147.1,252.4,142.9,249.2z M181.4,274.7c-6.8-3.8-17.7-3.5-23.8,0.6c-2.6,1.6-3.8,3.5-3.8,5.5    c0,2.4,1.9,4.8,5.5,6.4c3,1.1,6.7,1.7,10.4,1.7c4.3,0,8.5-0.7,11.7-2.2c3.1-1.7,4.7-3.9,4.7-6.1    C186,278.4,184.5,276.3,181.4,274.7z M211,286.2c-0.9-0.2-2-0.3-3.3-0.3c-5,0-11.9,1.4-16.9,3.7c-3.2,1.2-4.8,2.4-4.8,3.1    c0,0.6,1.1,1,3.3,1c1.3-0.1,2.9-0.3,4.6-0.6c4-0.7,8-1.5,11.9-2.5l0,0c0.4-0.1,1-0.3,1.4-0.4C213.4,288.3,215.3,286.5,211,286.2z     M76,242.6c-4.4-4.3-9.3-6.6-12.6-6.6c-1.5,0-2.7,0.5-3.4,1.5c-0.3,0.5-0.4,1-0.4,1.7c0,3.2,3.2,8.5,7.9,13.1    c4.6,4.2,9.7,7,12.9,7c0.8,0,1.5-0.2,2.1-0.6C85.4,256.1,82.6,248.7,76,242.6z M113,272.1c-5.1-3.5-11.1-5.5-15.3-5.5    c-1.6,0-2.9,0.3-3.9,0.9c-0.7,0.4-1,0.9-1,1.6c0,2.1,3.1,5.3,8,8.3c5.6,3.1,12.3,5.5,16.2,5.5c0.5,0,1,0,1.4-0.1    C122.1,281.4,120,276.5,113,272.1z M5.1,122.5c-0.4-0.2-0.7-0.3-1-0.3c-2.3,0-3.9,4.7-4.1,11.3c0.1,3.6,0.5,7.5,1.3,10.7    c0.7,3.2,1.7,5.9,2.9,7.2c3.1,2.7,6.3-1.6,6.6-9.9c0.1-0.8,0.1-1.7,0.1-2.5C10.9,131.2,8.3,124.1,5.1,122.5z M149.3,290.7    c-5-1.9-11.5-3-16.1-3c-1.4,0-2.6,0.1-3.6,0.3c-3.2,0.3-1.9,1.4,2.1,2.6l0,0c6.2,1.6,12.4,2.7,18.7,3.5c0.6,0.1,1,0.1,1.5,0.1    C156.5,294.3,155.6,292.7,149.3,290.7z M233.4,12.4c-5.9-3-12.7-5.3-16.6-5.3c-0.4,0-0.8,0-1.2,0.1c-1.3,0.4-2,1.2-2,2.3    c0,2,2.5,5,7.1,7.8c5.1,3.4,11.3,5.3,15.6,5.3c1.6,0,2.9-0.3,3.8-0.8C243,20.2,239.8,16.1,233.4,12.4z"></path>
		<path class="st1" d="M182.2,237c-3.7,3.4-8.8,5.1-13.9,5.1c-4.6,0-9.1-1.4-12.8-4.2c-4.2-3.4-6.4-8.2-6.4-12.9    c-0.3-3.4,0.3-16.6-20-18.1c-0.7,0.1-1.3,0.1-2,0.1c-4.9,0-9.9-1.8-13.8-5.4c-4.3-4.1-6.5-9.5-6.5-14.9c0-4.3,1.4-8.6,4.4-11.9    c3.5-4,8.5-6,13.6-6c4.8,0,9.7,1.8,13.7,5.5c4,3.6,6.2,8.4,6.5,13.3c2.3,16.8,5.2,20.7,20.2,20.6h0.1c1-0.1,2-0.2,3-0.2    c4.8,0,9.6,1.6,13.4,4.8C189.3,219.2,189.5,230.1,182.2,237z"></path>
		<path class="st1" d="M184.1,63c0,4-1.6,8-4.9,11.3c-3.4,3.4-8.1,5.4-12.8,5.7c-0.4,0-0.7,0-1.1,0.1c-0.1,0-0.1,0-0.2,0    c-13.5,0.9-21.5,7.9-21.8,23.8l0,0c0,0.3,0,0.5,0,0.8c-0.3,4.5-2.1,9-5.4,12.6c-4,4.4-9.5,6.6-14.8,6.6c-4.6,0-9.1-1.6-12.5-5    c-3.6-3.4-5.3-8.1-5.3-12.9c0-4.9,1.8-9.9,5.4-13.9c3.6-3.8,8.3-6,13-6.4c1.1,0,2.2,0,3.2,0c14-0.5,20.1-7,19-21.6h0    c0-0.2,0-0.4,0-0.6c0-1.2,0.1-2.4,0.4-3.5c0.7-3,2.4-5.9,5-8.3c0.8-0.7,1.6-1.3,2.5-1.9c7.1-4.5,17.2-4.3,24,0.9    C182,53.8,184.1,58.4,184.1,63z"></path>
	</g>
	<g>
		<path class="st0" d="M375.8,255.5c-1.5-0.8-2.6-2-3.4-3.6s-1.2-3.4-1.2-5.5v-7.6c0-2.1,0.4-4,1.2-5.5s1.9-2.8,3.4-3.6    c1.5-0.8,3.2-1.3,5.3-1.3c1.7,0,3.2,0.4,4.5,1.1c1.4,0.7,2.5,1.7,3.4,3.1c0.9,1.3,1.5,2.9,1.8,4.8h-4.7c-0.2-0.9-0.6-1.7-1.1-2.3    s-1.1-1.2-1.8-1.5s-1.4-0.5-2.2-0.5c-1.1,0-2,0.2-2.7,0.7c-0.8,0.5-1.4,1.2-1.8,2c-0.4,0.9-0.6,1.9-0.6,3.1v7.6    c0,1.2,0.2,2.2,0.6,3.1c0.4,0.9,1,1.6,1.8,2c0.8,0.5,1.7,0.7,2.7,0.7c0.8,0,1.5-0.2,2.2-0.5c0.7-0.3,1.3-0.8,1.8-1.5    c0.5-0.7,0.9-1.5,1.1-2.4h4.7c-0.3,1.8-1,3.4-1.9,4.8c-0.9,1.3-2,2.4-3.4,3.1c-1.4,0.7-2.9,1.1-4.5,1.1    C379,256.7,377.2,256.3,375.8,255.5z"></path>
		<path class="st0" d="M401.9,255.5c-1.5-0.8-2.7-2-3.5-3.6s-1.2-3.3-1.2-5.4v-7.9c0-2,0.4-3.8,1.2-5.4c0.8-1.6,2-2.8,3.5-3.6    c1.5-0.8,3.2-1.3,5.2-1.3s3.7,0.4,5.2,1.3c1.5,0.8,2.7,2,3.5,3.6c0.8,1.6,1.2,3.3,1.2,5.4v7.9c0,2-0.4,3.8-1.2,5.4s-2,2.8-3.5,3.6    c-1.5,0.8-3.2,1.3-5.2,1.3S403.4,256.3,401.9,255.5z M409.9,251.5c0.8-0.5,1.4-1.1,1.8-2c0.4-0.8,0.7-1.8,0.7-2.9v-8.2    c0-1.1-0.2-2.1-0.7-2.9c-0.4-0.8-1-1.5-1.8-2s-1.7-0.7-2.8-0.7s-2,0.2-2.8,0.7c-0.8,0.5-1.4,1.1-1.8,2c-0.4,0.8-0.7,1.8-0.7,2.9    v8.2c0,1.1,0.2,2.1,0.7,2.9c0.4,0.8,1,1.5,1.8,2c0.8,0.5,1.7,0.7,2.8,0.7S409.1,252,409.9,251.5z"></path>
		<path class="st0" d="M425.2,228.6h5l12,21.4l-0.5,0.5v-21.9h4.4v27.8h-5l-11.9-21.1l0.5-0.5v21.6h-4.4V228.6z"></path>
		<path class="st0" d="M455.1,228.6h4.6v27.8h-4.6V228.6z M457,228.6h16v4.4h-16V228.6z M457,240.7h13.9v4.4H457V240.7z"></path>
		<path class="st0" d="M480,228.6h4.6v27.8H480V228.6z M481.8,228.6h16.4v4.4h-16.4V228.6z M481.8,240.4h14.3v4.4h-14.3V240.4z     M481.8,252.1h16.4v4.4h-16.4V252.1z"></path>
		<path class="st0" d="M505.9,228.6h4.6v27.9h-4.6V228.6z M507.8,240.6h9.6c0.6,0,1.2-0.2,1.7-0.5c0.5-0.3,0.9-0.8,1.1-1.3    c0.3-0.6,0.4-1.2,0.4-2c0-0.8-0.1-1.4-0.4-2c-0.3-0.6-0.6-1-1.1-1.3c-0.5-0.3-1.1-0.5-1.7-0.5h-9.6v-4.4h9.7c1.6,0,2.9,0.3,4.1,1    c1.2,0.7,2.1,1.6,2.8,2.9s1,2.7,1,4.3c0,1.6-0.3,3.1-1,4.3s-1.6,2.2-2.8,2.9c-1.2,0.7-2.6,1-4.1,1h-9.7V240.6z M514.5,244.1    l4.7-0.9l7.3,13.2h-5.5L514.5,244.1z"></path>
		<path class="st0" d="M534,228.6h4.6v27.8H534V228.6z M535.9,228.6h16.4v4.4h-16.4V228.6z M535.9,240.4h14.3v4.4h-14.3V240.4z     M535.9,252.1h16.4v4.4h-16.4V252.1z"></path>
		<path class="st0" d="M559.9,228.6h5l12,21.4l-0.5,0.5v-21.9h4.4v27.8h-5l-12-21.1l0.5-0.5v21.6h-4.4V228.6z"></path>
		<path class="st0" d="M593.9,255.5c-1.5-0.8-2.6-2-3.4-3.6s-1.2-3.4-1.2-5.5v-7.6c0-2.1,0.4-4,1.2-5.5s1.9-2.8,3.4-3.6    c1.5-0.8,3.2-1.3,5.3-1.3c1.7,0,3.2,0.4,4.5,1.1c1.4,0.7,2.5,1.7,3.4,3.1c0.9,1.3,1.5,2.9,1.8,4.8h-4.7c-0.2-0.9-0.6-1.7-1.1-2.3    s-1.1-1.2-1.8-1.5c-0.7-0.4-1.4-0.5-2.2-0.5c-1.1,0-2,0.2-2.7,0.7c-0.8,0.5-1.4,1.2-1.8,2c-0.4,0.9-0.6,1.9-0.6,3.1v7.6    c0,1.2,0.2,2.2,0.6,3.1c0.4,0.9,1,1.6,1.8,2c0.8,0.5,1.7,0.7,2.7,0.7c0.8,0,1.5-0.2,2.2-0.5c0.7-0.3,1.3-0.8,1.8-1.5    c0.5-0.7,0.9-1.5,1.1-2.4h4.7c-0.3,1.8-1,3.4-1.9,4.8c-0.9,1.3-2,2.4-3.4,3.1c-1.4,0.7-2.9,1.1-4.5,1.1    C597.2,256.7,595.4,256.3,593.9,255.5z"></path>
		<path class="st0" d="M616.3,228.6h4.6v27.8h-4.6V228.6z M618.2,228.6h16.4v4.4h-16.4V228.6z M618.2,240.4h14.3v4.4h-14.3V240.4z     M618.2,252.1h16.4v4.4h-16.4V252.1z"></path>
		<path class="st0" d="M659.9,245.4c-0.8,0.8-1.2,1.9-1.2,3.4c0,1.2,0.4,2.2,1.3,2.9c0.9,0.7,2.1,1,3.6,1c1.5,0,2.8-0.4,3.8-1.3    c1.1-0.8,1.9-2,2.4-3.6c0.6-1.6,0.8-3.5,0.8-5.6h4.4c0,3.1-0.5,5.7-1.4,7.9c-1,2.2-2.4,3.9-4.2,5c-1.9,1.2-4.1,1.7-6.7,1.7    c-1.8,0-3.3-0.3-4.5-0.9c-1.3-0.6-2.2-1.5-2.9-2.7c-0.7-1.2-1-2.6-1-4.3c0-2.3,0.6-4.1,1.9-5.5c1.3-1.4,3.1-2.2,5.4-2.4l1.6,3.3    C661.8,244.2,660.7,244.6,659.9,245.4z M661.3,245.4c-0.9-1-1.7-1.9-2.3-2.9c-0.6-1-1.1-2-1.4-3.1c-0.3-1.1-0.5-2.2-0.5-3.3    c0-2.4,0.7-4.3,2-5.7c1.3-1.3,3.2-2,5.7-2c2.4,0,4.3,0.6,5.6,1.9c1.3,1.3,2,3.1,2,5.4v0.6h-4.6v-0.6c0-1.1-0.3-2-0.8-2.6    c-0.5-0.6-1.3-0.9-2.2-0.9c-1,0-1.9,0.3-2.4,1c-0.6,0.7-0.9,1.6-0.9,2.8c0,0.7,0.1,1.5,0.4,2.3c0.3,0.8,0.7,1.6,1.3,2.5    c0.5,0.9,1.2,1.7,2,2.5l12.1,13.1h-5.4L661.3,245.4z"></path>
		<path class="st0" d="M696.4,228.6h4.6v27.8h-4.6V228.6z M698.3,228.6h16.4v4.4h-16.4V228.6z M698.3,240.4h14.3v4.4h-14.3V240.4z     M698.3,252.1h16.4v4.4h-16.4V252.1z"></path>
		<path class="st0" d="M729.1,239.9l6.6-11.3h5l-9.2,15.4l-7.3,12.4h-5L729.1,239.9z M729.2,244.6l-0.6-0.9l-9.1-15.1h5l6.5,11    l0.7,1.1l9.5,15.8h-5L729.2,244.6z"></path>
		<path class="st0" d="M747.5,228.6h4.6v27.8h-4.6V228.6z M749.9,240.5h15.8v4.4h-15.8V240.5z M763,228.6h4.6v27.8H763V228.6z"></path>
		<path class="st0" d="M781.1,256.4h-4.7v-27.8h4.7V256.4z"></path>
		<path class="st0" d="M789.9,228.6h4.6v27.8h-4.6V228.6z M792.2,252.1h8.2c1.6,0,2.8-0.3,3.6-1c0.8-0.7,1.2-1.6,1.2-2.8v-0.1    c0-0.8-0.2-1.5-0.5-2.1c-0.3-0.6-0.8-1-1.4-1.4c-0.6-0.3-1.4-0.5-2.4-0.5h-8.7V240h8.7c1.3,0,2.2-0.3,2.9-0.9c0.7-0.6,1-1.5,1-2.7    c0-1.1-0.4-2-1.1-2.6c-0.7-0.6-1.7-0.9-3.1-0.9h-8.4v-4.3h8.9c1.8,0,3.3,0.3,4.6,0.9c1.2,0.6,2.2,1.5,2.8,2.6    c0.6,1.1,0.9,2.5,0.9,4c0,1-0.2,2-0.6,2.8c-0.4,0.8-1,1.5-1.8,2.1c-0.8,0.6-1.7,0.9-2.9,1.1c1.2,0.2,2.2,0.6,3,1.2    s1.5,1.4,1.9,2.3c0.4,0.9,0.7,2,0.7,3.2v0.1c0,1.5-0.3,2.9-1,4c-0.7,1.1-1.6,2-2.9,2.6c-1.3,0.6-2.7,0.9-4.5,0.9h-9.2V252.1z"></path>
		<path class="st0" d="M822.2,256.4h-4.7v-27.8h4.7V256.4z"></path>
		<path class="st0" d="M828.8,228.6h20v4.4h-20V228.6z M836.5,230.9h4.6v25.6h-4.6V230.9z"></path>
		<path class="st0" d="M859.2,256.4h-4.7v-27.8h4.7V256.4z"></path>
		<path class="st0" d="M872.2,255.5c-1.5-0.8-2.7-2-3.5-3.6s-1.2-3.3-1.2-5.4v-7.9c0-2,0.4-3.8,1.2-5.4c0.8-1.6,2-2.8,3.5-3.6    c1.5-0.8,3.2-1.3,5.2-1.3c2,0,3.7,0.4,5.2,1.3c1.5,0.8,2.7,2,3.5,3.6c0.8,1.6,1.2,3.3,1.2,5.4v7.9c0,2-0.4,3.8-1.2,5.4    s-2,2.8-3.5,3.6c-1.5,0.8-3.2,1.3-5.2,1.3C875.5,256.7,873.7,256.3,872.2,255.5z M880.2,251.5c0.8-0.5,1.4-1.1,1.8-2    c0.4-0.8,0.7-1.8,0.7-2.9v-8.2c0-1.1-0.2-2.1-0.7-2.9c-0.4-0.8-1.1-1.5-1.8-2c-0.8-0.5-1.7-0.7-2.8-0.7s-2,0.2-2.8,0.7    s-1.4,1.1-1.8,2c-0.4,0.8-0.7,1.8-0.7,2.9v8.2c0,1.1,0.2,2.1,0.7,2.9c0.4,0.8,1,1.5,1.8,2c0.8,0.5,1.7,0.7,2.8,0.7    S879.4,252,880.2,251.5z"></path>
		<path class="st0" d="M895.5,228.6h5l12,21.4l-0.5,0.5v-21.9h4.4v27.8h-5l-12-21.1l0.5-0.5v21.6h-4.4V228.6z"></path>
		<path class="st0" d="M937.5,252.4l9.6-12.8c0.5-0.7,0.9-1.3,1.2-2s0.4-1.3,0.4-1.9v0c0-0.9-0.3-1.7-0.9-2.2    c-0.6-0.5-1.4-0.8-2.4-0.8c-1,0-1.8,0.3-2.4,0.9c-0.6,0.6-1,1.5-1.1,2.6v0h-4.7v0c0.2-1.7,0.6-3.1,1.3-4.3    c0.7-1.2,1.7-2.1,2.8-2.7c1.2-0.6,2.5-0.9,4.1-0.9c1.7,0,3.1,0.3,4.3,0.9c1.2,0.6,2.1,1.4,2.7,2.5c0.6,1.1,0.9,2.4,0.9,3.9v0    c0,1.1-0.2,2.3-0.6,3.4c-0.4,1.2-1,2.2-1.8,3.2l-7.5,9.8h10v4.4h-16.1V252.4z"></path>
		<path class="st0" d="M962.8,254.6c-1.4-1.4-2.1-3.3-2.1-5.8v-12.7c0-2.5,0.7-4.4,2.1-5.8s3.4-2.1,6.1-2.1c2.7,0,4.7,0.7,6.1,2.1    c1.4,1.4,2.1,3.3,2.1,5.8v12.7c0,2.5-0.7,4.4-2.1,5.8c-1.4,1.4-3.4,2.1-6.1,2.1C966.2,256.7,964.2,256,962.8,254.6z M971.6,251.3    c0.6-0.7,0.9-1.8,0.9-3.1v-11.3c0-1.4-0.3-2.4-0.9-3.1c-0.6-0.7-1.5-1.1-2.7-1.1s-2.1,0.4-2.7,1.1c-0.6,0.7-0.9,1.8-0.9,3.1v11.3    c0,1.4,0.3,2.4,0.9,3.1c0.6,0.7,1.5,1.1,2.7,1.1S971,252,971.6,251.3z"></path>
		<path class="st0" d="M984.4,252.4l9.6-12.8c0.5-0.7,0.9-1.3,1.2-2s0.4-1.3,0.4-1.9v0c0-0.9-0.3-1.7-0.9-2.2    c-0.6-0.5-1.4-0.8-2.4-0.8c-1,0-1.8,0.3-2.4,0.9c-0.6,0.6-1,1.5-1.1,2.6v0h-4.7v0c0.2-1.7,0.6-3.1,1.3-4.3    c0.7-1.2,1.7-2.1,2.8-2.7c1.2-0.6,2.5-0.9,4.1-0.9c1.7,0,3.1,0.3,4.3,0.9c1.2,0.6,2.1,1.4,2.7,2.5c0.6,1.1,0.9,2.4,0.9,3.9v0    c0,1.1-0.2,2.3-0.6,3.4c-0.4,1.2-1,2.2-1.8,3.2l-7.5,9.8h10v4.4h-16.1V252.4z"></path>
		<path class="st0" d="M1007.2,252.4l9.6-12.8c0.5-0.7,0.9-1.3,1.2-2s0.4-1.3,0.4-1.9v0c0-0.9-0.3-1.7-0.9-2.2    c-0.6-0.5-1.4-0.8-2.4-0.8c-1,0-1.8,0.3-2.4,0.9c-0.6,0.6-1,1.5-1.1,2.6v0h-4.7v0c0.2-1.7,0.6-3.1,1.3-4.3    c0.7-1.2,1.7-2.1,2.8-2.7c1.2-0.6,2.5-0.9,4.1-0.9c1.7,0,3.1,0.3,4.3,0.9c1.2,0.6,2.1,1.4,2.7,2.5c0.6,1.1,0.9,2.4,0.9,3.9v0    c0,1.1-0.2,2.3-0.6,3.4c-0.4,1.2-1,2.2-1.8,3.2l-7.5,9.8h10v4.4h-16.1V252.4z"></path>
	</g>
	<g>
		<path class="st0" d="M371.8,146.1h10.6v19h19.5v-19h10.6v48h-10.6v-19.3h-19.5v19.3h-10.6V146.1z"></path>
		<path class="st0" d="M428.1,173.6v-27.5h10.6v27.2c0,7.8,3.9,11.9,10.4,11.9s10.4-3.9,10.4-11.5v-27.5H470v27.1    c0,14.6-8.2,21.7-21.1,21.7C436,194.9,428.1,187.7,428.1,173.6z"></path>
		<path class="st0" d="M485.6,146.1H497l12.6,20.3l12.6-20.3h11.4v48h-10.5v-31.4l-13.5,20.5h-0.3L496,163v31.2h-10.4V146.1z"></path>
		<path class="st0" d="M566.5,145.8h9.7l20.6,48.4h-11l-4.4-10.8h-20.3l-4.4,10.8H546L566.5,145.8z M577.7,174.1l-6.4-15.6    l-6.4,15.6H577.7z"></path>
		<path class="st0" d="M609.2,146.1h9.7l22.5,29.6v-29.6h10.4v48h-9l-23.3-30.5v30.5h-10.4V146.1z"></path>
		<path class="st0" d="M691.6,170.3v-0.1c0-13.7,10.3-24.8,25.1-24.8c9.1,0,14.5,3,18.9,7.4l-6.7,7.8c-3.7-3.4-7.5-5.4-12.3-5.4    c-8.1,0-13.9,6.7-13.9,15v0.1c0,8.2,5.7,15.1,13.9,15.1c5.5,0,8.9-2.2,12.6-5.6l6.7,6.8c-4.9,5.3-10.4,8.6-19.7,8.6    C702.1,195,691.6,184.1,691.6,170.3z"></path>
		<path class="st0" d="M765.7,145.8h9.7l20.6,48.4h-11l-4.4-10.8h-20.3l-4.4,10.8h-10.8L765.7,145.8z M776.8,174.1l-6.4-15.6    l-6.4,15.6H776.8z"></path>
		<path class="st0" d="M808.3,146.1H828c11.5,0,18.4,6.8,18.4,16.6v0.1c0,11.1-8.6,16.9-19.4,16.9h-8v14.4h-10.6V146.1z     M827.3,170.4c5.3,0,8.4-3.2,8.4-7.3V163c0-4.7-3.3-7.3-8.6-7.3h-8.2v14.7H827.3z"></path>
		<path class="st0" d="M859.5,146.1h10.6v48h-10.6V146.1z"></path>
		<path class="st0" d="M898.2,155.9h-14.6v-9.7h39.8v9.7h-14.6v38.3h-10.6V155.9z"></path>
		<path class="st0" d="M946.6,145.8h9.7l20.6,48.4h-11l-4.4-10.8h-20.3l-4.4,10.8H926L946.6,145.8z M957.8,174.1l-6.4-15.6    l-6.4,15.6H957.8z"></path>
		<path class="st0" d="M989.3,146.1h10.6v38.4h24v9.6h-34.5V146.1z"></path>
	</g>
</g>
</svg>